<svg width="205" height="66" viewBox="0 0 205 66" fill="none" xmlns="http://www.w3.org/2000/svg">
  <path d="M22.0605 36.6392C22.0605 26.1883 24.4299 18.1125 28.4019 12.2065C33.4666 4.67393 40.6953 0.690338 49.3064 0.690338C67.2923 0.690338 77.6087 12.7075 77.6087 33.6575C77.6087 41.839 75.6106 49.4863 71.9857 55.184C67.6635 61.9742 61.4278 65.5655 53.9515 65.5655C46.4572 65.5655 40.2245 62.0134 35.9204 55.2926C32.7301 50.3101 30.8014 43.7704 30.3789 36.6362H22.0605V36.6392ZM28.1665 30.6819H36.2494V33.6606C36.2494 40.8189 37.9155 47.3617 40.9368 52.0846C44.1331 57.0762 48.5096 59.6082 53.9485 59.6082C66.1091 59.6082 71.6476 46.1575 71.6476 33.6606C71.6476 21.3386 67.7722 6.65063 49.3064 6.65063C35.2081 6.65063 29.1505 20.3457 28.1665 30.6819Z" fill="#26A8E0" />
  <path d="M43.0284 22.9984C43.0284 25.0476 41.3683 26.7074 39.3189 26.7074C37.2695 26.7074 35.6095 25.0476 35.6095 22.9984C35.6095 20.9493 37.2695 19.2895 39.3189 19.2895C41.3683 19.2895 43.0284 20.9523 43.0284 22.9984Z" fill="#7AB526" />
  <path d="M56.3269 36.5155C56.3269 24.3836 53.9575 17.9888 49.9855 12.0828C48.6816 10.1423 47.2328 8.44024 45.6543 6.97959C43.2608 7.42322 41.145 8.30141 39.2888 9.49951C46.2338 14.0987 49.5177 23.1825 50.2209 30.5552H42.138V33.5338C42.138 35.5256 42.0082 37.4842 41.7486 39.3824C40.9548 39.2376 40.1429 39.1652 39.322 39.1652C31.8518 39.1652 25.776 45.2401 25.776 52.7093C25.776 55.0029 26.3585 57.2301 27.436 59.2008C26.4732 59.3879 25.4742 59.4814 24.4419 59.4814C12.2813 59.4814 6.74281 46.0308 6.74281 33.5338C6.74281 21.2119 10.6183 6.52389 29.084 6.52389C30.4513 6.52389 31.7431 6.65366 32.9595 6.89509C34.9002 5.13869 37.0341 3.74745 39.334 2.72741C36.2101 1.29694 32.7754 0.563599 29.084 0.563599C11.0982 0.563599 0.781738 12.5808 0.781738 33.5308C0.781738 41.7122 2.77983 49.3595 6.40477 55.0572C10.7239 61.8474 16.9627 65.4387 24.4389 65.4387C27.759 65.4387 35.0089 63.4922 37.6559 61.3344C33.9223 58.9956 31.8155 55.866 31.734 52.7093C31.6284 48.5296 35.1356 45.0953 39.3189 45.1254C42.9529 45.1496 44.3383 46.2933 46.1463 47.6635C47.586 43.3449 47.8576 39.0595 48.0085 36.5155H56.3269V36.5155Z" fill="#EB5534" />
  <path d="M127.448 46.7817C127.448 48.5617 126.229 49.8371 124.51 49.8371C123.315 49.8371 122.378 49.2155 121.922 48.2347V52.0974H121.429V43.7263H121.922V45.3286C122.378 44.3317 123.315 43.7141 124.51 43.7141C126.221 43.7141 127.448 44.9896 127.448 46.7817ZM126.968 46.7817C126.968 45.2721 125.914 44.1702 124.437 44.1702C122.971 44.1702 121.918 45.2721 121.918 46.7817C121.918 48.2912 122.971 49.381 124.437 49.381C125.914 49.381 126.968 48.2912 126.968 46.7817Z" fill="white" />
  <path d="M134.383 46.9108H129.055C129.124 48.3962 130.157 49.3931 131.574 49.3931C132.405 49.3931 133.144 49.0904 133.633 48.5496L133.915 48.8644C133.354 49.4739 132.523 49.8371 131.55 49.8371C129.83 49.8371 128.575 48.5738 128.575 46.7817C128.575 44.9896 129.826 43.7141 131.55 43.7141C133.342 43.7141 134.42 45.0259 134.383 46.9108ZM133.939 46.479C133.847 45.0986 132.942 44.1622 131.55 44.1622C130.181 44.1622 129.184 45.0986 129.067 46.479H133.939Z" fill="white" />
  <path d="M141.492 46.7696C141.492 48.5738 140.229 49.8371 138.481 49.8371C136.749 49.8371 135.473 48.5738 135.473 46.7696C135.473 44.9896 136.749 43.7141 138.481 43.7141C140.229 43.7141 141.492 44.9896 141.492 46.7696ZM135.954 46.7817C135.954 48.3155 137.019 49.381 138.485 49.381C139.962 49.381 141.016 48.3155 141.016 46.7817C141.016 45.2479 139.962 44.1823 138.485 44.1823C137.019 44.1823 135.954 45.2479 135.954 46.7817Z" fill="white" />
  <path d="M149.348 46.7817C149.348 48.5617 148.129 49.8371 146.409 49.8371C145.214 49.8371 144.278 49.2155 143.821 48.2347V52.0974H143.329V43.7263H143.821V45.3286C144.278 44.3317 145.214 43.7141 146.409 43.7141C148.121 43.7141 149.348 44.9896 149.348 46.7817ZM148.871 46.7817C148.871 45.2721 147.818 44.1702 146.344 44.1702C144.879 44.1702 143.826 45.2721 143.826 46.7817C143.826 48.2912 144.879 49.381 146.344 49.381C147.818 49.381 148.871 48.2912 148.871 46.7817Z" fill="white" />
  <path d="M151.189 49.825V41.1391H151.681V49.825H151.189Z" fill="white" />
  <path d="M159.327 46.9108H153.998C154.067 48.3962 155.1 49.3931 156.517 49.3931C157.349 49.3931 158.087 49.0904 158.576 48.5496L158.858 48.8644C158.297 49.4739 157.466 49.8371 156.493 49.8371C154.773 49.8371 153.518 48.5738 153.518 46.7817C153.518 44.9896 154.769 43.7141 156.493 43.7141C158.285 43.7141 159.363 45.0259 159.327 46.9108ZM158.883 46.479C158.79 45.0986 157.885 44.1622 156.493 44.1622C155.124 44.1622 154.127 45.0986 154.01 46.479H158.883Z" fill="white" />
  <path d="M167.352 49.4053C166.964 49.6757 166.532 49.8371 166.076 49.8371C165.208 49.8492 164.695 49.2882 164.695 48.1379V44.2994H163.803V43.8796H164.695V42.3701H165.164V43.8796H167.235V44.2994H165.164V48.0814C165.164 48.9492 165.503 49.3689 166.137 49.3568C166.488 49.3568 166.851 49.2277 167.166 49.0057L167.352 49.4053Z" fill="white" />
  <path d="M172.749 48.6222C172.232 49.4658 171.368 49.8412 170.315 49.8412C169.108 49.8412 168.3 49.0783 168.3 48.0491C168.3 47.0319 169.168 46.4104 170.573 46.4104H172.741V45.813C172.729 44.7837 172.131 44.1622 170.916 44.1622C170.153 44.1622 169.511 44.4649 168.866 44.9573L168.631 44.5819C169.358 44.0532 170.06 43.7141 170.985 43.7141C172.426 43.7141 173.209 44.5093 173.221 45.7767L173.245 49.829H172.765L172.749 48.6222ZM172.749 47.8351V46.8422H170.618C169.423 46.8422 168.769 47.2499 168.769 48.037C168.769 48.8442 169.39 49.3972 170.383 49.3972C171.518 49.3931 172.374 48.9007 172.749 47.8351Z" fill="white" />
  <path d="M175.538 49.825V41.1391H176.031V49.825H175.538Z" fill="white" />
  <path d="M179.075 48.033V49.825H178.582V41.1391H179.075V47.3307L182.679 43.7263H183.277L180.972 46.0915L183.584 49.825H183.022L180.621 46.4427L179.075 48.033Z" fill="white" />
  <path d="M112.129 36.3238C110.978 37.0019 109.416 37.4136 107.882 37.4136C104.814 37.4136 102.602 35.674 102.602 32.3723V25.3573H100.39V22.0275H102.602V21.0386C102.602 19.1415 104.14 17.6078 106.033 17.6078H107.672V21.9992H111.83V25.3614H107.672V31.5812C107.672 32.8203 108.205 33.3491 109.145 33.3208C109.674 33.3208 110.352 33.115 111.119 32.7921L112.129 36.3238Z" fill="white" />
  <path d="M128.756 26.7983V37.1755H125.599C124.59 37.1755 123.771 36.3561 123.771 35.347C122.737 36.7032 121.058 37.4095 118.906 37.4095C115.515 37.4095 113.453 35.347 113.453 32.4248C113.453 29.4178 115.604 27.6499 119.556 27.6176H123.742V27.3835C123.742 25.8215 122.709 24.877 120.646 24.877C120.19 24.877 119.685 24.9335 119.149 25.0425C117.304 25.4138 115.285 24.7801 114.543 23.0526L114.454 22.8468C116.932 21.6965 119.173 21.0466 121.825 21.0466C126.193 21.0507 128.728 23.202 128.756 26.7983ZM123.742 31.783V30.3663H120.529C118.995 30.3663 118.228 30.8991 118.228 32.0777C118.228 33.228 119.056 33.9626 120.469 33.9626C122.063 33.9626 123.419 33.0787 123.742 31.783Z" fill="white" />
  <path d="M132.531 37.1755V18.7298C132.531 16.8328 134.069 15.299 135.962 15.299H137.629V37.1755H132.531Z" fill="white" />
  <path d="M147.095 32.8446V37.1795H141.993V18.7339C141.993 16.8369 143.531 15.3031 145.424 15.3031H147.091V26.8588L152.339 21.2848H158.12L152.282 27.3876L158.297 37.1755H152.25L148.799 31.0444L147.095 32.8446Z" fill="white" />
  <path d="M165.672 16.7158C165.672 18.3061 164.55 19.4281 162.988 19.4281C161.426 19.4281 160.303 18.3061 160.303 16.7158C160.303 15.1537 161.426 14.0317 162.988 14.0317C164.55 14.0317 165.672 15.1537 165.672 16.7158ZM160.425 37.1755V24.7156C160.425 22.8186 161.963 21.2848 163.856 21.2848H165.495V37.1755H160.425Z" fill="white" />
  <path d="M185.812 27.1535V37.1795H184.173C182.276 37.1795 180.742 35.6417 180.742 33.7487V28.5702C180.742 26.7135 179.652 25.5632 177.94 25.5632C176.083 25.5632 174.904 26.8911 174.695 28.776V37.1795H169.592V24.7196C169.592 22.8226 171.13 21.2888 173.023 21.2888H174.69V23.8841C175.813 22.0274 177.637 21.083 179.999 21.0547C183.511 21.0507 185.812 23.4361 185.812 27.1535Z" fill="white" />
  <path d="M204.623 35.7304C204.623 40.2429 201.143 43.1006 196.013 43.1006C193.239 43.1006 190.733 42.2167 188.936 41.0058L190.704 37.5548C192.15 38.5558 193.918 39.1491 195.629 39.1491C198.075 39.1491 199.553 37.8535 199.553 35.8757V34.1926C198.52 35.5488 196.957 36.3157 194.983 36.3157C190.971 36.3157 188.141 33.2482 188.141 28.6186C188.141 24.1061 190.882 21.0991 194.866 21.0991C196.901 21.0708 198.495 21.8377 199.557 23.2221C199.557 22.1485 200.429 21.2767 201.503 21.2767H204.627V35.7304H204.623ZM199.549 28.776C199.549 26.4471 198.221 24.8851 196.247 24.8851C194.241 24.8851 192.884 26.4794 192.884 28.776C192.884 31.0444 194.241 32.6387 196.247 32.6387C198.225 32.6346 199.549 31.0444 199.549 28.776Z" fill="white" />
</svg>
